# xmcd CD database file
#
# Track frame offsets:
#	150
#	13345
#	27695
#	40033
#	54952
#	69333
#	79392
#	92948
#	102594
#	114503
#	125000
#	138501
#	154335
#	166433
#	183133
#	194839
#	207244
#	220341
#	233968
#	248216
#
# Disc length: 3508 seconds
#
# Revision: 0
# Processed by: cddbd v1.5.1PL2 Copyright (c) Steve Scherf et al.
# Submitted via: CDex 1.40Release
#
DISCID=2e0db214
DTITLE=Various Artist - Classic Country/Stars Of Branson
DYEAR=2005
DGENRE=Country
TTITLE0=Houston (Means I'm One Day Closer To You)/Larry Gatlin and The Gatlin Brothers Band
TTITLE1=I Love A Rainy Night/Eddie Rabbitt
TTITLE2=Okie From Muskogee/Merle Haggard
TTITLE3=He Stopped Loving Her Today/George Jones
TTITLE4=Rhinestone Cowboy/ Glen Campbell
TTITLE5=Is Anybody Going To San Antone/Charlie Pride
TTITLE6=Coal Miner's Daughter/Loretta Lynn
TTITLE7=I Ain't Never/Mel Tillis
TTITLE8=Fourteen Carat Mind/Gene Watson
TTITLE9=Sleeping Single In A Double Bed/Barbara Mandrell
TTITLE10=It's Four In The Morning/Faron Young
TTITLE11=Lookin' For Love/Johnnie Lee
TTITLE12=Paper Roses/Marie Osmond
TTITLE13=Mona Lisa Lost Her Smile/David Allan Coe
TTITLE14=Just Good Ol' Boys/Moe Bandy and Joe Stampley
TTITLE15=What Part Of No/Lorrie Morgan
TTITLE16=Misty/Ray Stevens
TTITLE17=Teddy Bear Song/ Barbara Fairchild
TTITLE18=Spiders and Snakes/Jim Stafford
TTITLE19=Yesterday, When I Was Young/Roy Clark
EXTD=YEAR: 2005 ID3G: 2
EXTT0=
EXTT1=
EXTT2=
EXTT3=
EXTT4=
EXTT5=
EXTT6=
EXTT7=
EXTT8=
EXTT9=
EXTT10=
EXTT11=
EXTT12=
EXTT13=
EXTT14=
EXTT15=
EXTT16=
EXTT17=
EXTT18=
EXTT19=
PLAYORDER=
